0
SECTION
2
HEADER
9
$INSUNITS
70
4
9
$ACADVER
1
AC1014
9
$HANDSEED
5
FFFF
0
ENDSEC
0
SECTION
2
TABLES
0
TABLE
2
VPORT
5
8
100
AcDbSymbolTable
0
ENDTAB
0
TABLE
2
LTYPE
5
5
100
AcDbSymbolTable
0
LTYPE
5
14
100
AcDbSymbolTableRecord
100
AcDbLinetypeTableRecord
2
BYBLOCK
70
0
0
LTYPE
5
15
100
AcDbSymbolTableRecord
100
AcDbLinetypeTableRecord
2
BYLAYER
70
0
0
ENDTAB
0
TABLE
2
LAYER
5
2
100
AcDbSymbolTable
70
2
0
LAYER
5
50
100
AcDbSymbolTableRecord
100
AcDbLayerTableRecord
2
0
70
0
6
CONTINUOUS
0
ENDTAB
0
TABLE
2
STYLE
5
3
100
AcDbSymbolTable
70
1
0
STYLE
5
11
100
AcDbSymbolTableRecord
100
AcDbTextStyleTableRecord
2
STANDARD
70
0
0
ENDTAB
0
TABLE
2
VIEW
5
6
100
AcDbSymbolTable
70
0
0
ENDTAB
0
TABLE
2
UCS
5
7
100
AcDbSymbolTable
70
0
0
ENDTAB
0
TABLE
2
APPID
5
9
100
AcDbSymbolTable
70
2
0
APPID
5
12
100
AcDbSymbolTableRecord
100
AcDbRegAppTableRecord
2
ACAD
70
0
0
ENDTAB
0
TABLE
2
DIMSTYLE
5
A
100
AcDbSymbolTable
70
1
0
ENDTAB
0
TABLE
2
BLOCK_RECORD
5
1
100
AcDbSymbolTable
70
1
0
BLOCK_RECORD
5
1F
100
AcDbSymbolTableRecord
100
AcDbBlockTableRecord
2
*MODEL_SPACE
0
BLOCK_RECORD
5
1B
100
AcDbSymbolTableRecord
100
AcDbBlockTableRecord
2
*PAPER_SPACE
0
ENDTAB
0
ENDSEC
0
SECTION
2
BLOCKS
0
BLOCK
5
20
100
AcDbEntity
100
AcDbBlockBegin
2
*MODEL_SPACE
0
ENDBLK
5
21
100
AcDbEntity
100
AcDbBlockEnd
0
BLOCK
5
1C
100
AcDbEntity
100
AcDbBlockBegin
2
*PAPER_SPACE
0
ENDBLK
5
1D
100
AcDbEntity
100
AcDbBlockEnd
0
ENDSEC
0
SECTION
2
ENTITIES
0
CIRCLE
5
100
100
AcDbEntity
8
0
100
AcDbCircle
10
8.2499999999999964
20
-99.800000000000011
30
0
40
1.5874999999999995
210
0
220
0
230
1
0
LINE
5
101
100
AcDbEntity
8
0
100
AcDbLine
10
4.0999999999999996
20
-86.200000000000017
30
0
11
12.399999999999999
21
-86.200000000000017
31
0
0
ARC
5
102
100
AcDbEntity
8
0
100
AcDbCircle
10
12.399999999999929
20
-86.550000000000551
30
0
40
0.35000000000053444
210
0
220
-0
230
1
100
AcDbArc
50
73.398450400992573
51
89.99999999998866
0
LINE
5
103
100
AcDbEntity
8
0
100
AcDbLine
10
12.500000000000007
20
-86.214589803375048
30
0
11
12.500000000000009
21
-87.699999999999974
31
0
0
ARC
5
104
100
AcDbEntity
8
0
100
AcDbCircle
10
13.100000000000019
20
-87.699999999999989
30
0
40
0.60000000000000941
210
0
220
0
230
1
100
AcDbArc
50
180
51
269.99999999999847
0
LINE
5
105
100
AcDbEntity
8
0
100
AcDbLine
10
13.100000000000003
20
-88.299999999999997
30
0
11
13.500000000000005
21
-88.299999999999983
31
0
0
LWPOLYLINE
5
106
100
AcDbEntity
8
0
100
AcDbPolyline
90
122
70
1
43
0.0
10
13.500000000000005
20
-110.25000000000003
10
3.0000000000000071
20
-110.25000000000003
10
0.046902905625596514
20
-110.24999999999999
10
-9.393097094374399
20
-110.24999999999999
10
-10.343097094374391
20
-109.3
10
-14.753097094374398
20
-109.3
10
-16.802348461936919
20
-109.3
10
-17.706194188748881
20
-108.77816442631922
10
-18.36119418874889
20
-108.40000000000002
42
-0.26794919243112797
10
-19.361194188748879
20
-106.66794919243111
10
-19.361194188748879
20
-101.79999999999998
10
-18.361194188748883
20
-100.80000000000001
10
-17.706194188748885
20
-100.80000000000001
10
-15.443097094374416
20
-100.79999999999998
42
0.12007088038582607
10
-14.753097094374375
20
-100.63187837282548
42
0.28020660986001117
10
-13.943097094374547
20
-99.300000000000011
10
-13.943097094374401
20
-71.341673886799896
10
-13.943097094374405
20
-52.249999999999659
42
-0.41421356237313178
10
-13.093097094374308
20
-51.399999999999665
42
0.41421356237313145
10
-11.093097094374414
20
-49.399999999999991
10
-11.093097094374409
20
-41.299999999999997
42
0.41421356237309503
10
-13.093097094374411
20
-39.299999999999997
42
-0.41421356237309431
10
-13.94309709437441
20
-38.449999999999996
10
-13.943097094374405
20
-30.749999999999989
42
0.20088765961413241
10
-14.539668828377064
20
-29.325082773562038
42
0.008701562956663746
10
-14.590103572322137
20
-29.277108785658434
42
0.1879149793166339
10
-15.943097094374398
20
-28.749999999999993
10
-16.108146194957193
20
-28.750000000000007
42
0.17388431992068204
10
-17.379139717009171
20
-29.205792932634431
42
0.2241824470909273
10
-18.108146194956845
20
-30.749999999999879
10
-18.108146194956852
20
-37.599999999999987
10
-20.758146194956858
20
-37.599999999999987
10
-20.758146194956858
20
-22.800000000000004
10
-17.379139717009128
20
-22.799999999999983
10
-15.243097094374306
20
-22.800000000000011
42
0.10207439985784963
10
-14.590103572322315
20
-22.665288573228814
42
0.29947709117674098
10
-13.5930970943744
20
-21.150000000000002
10
-13.5930970943744
20
-20.150000000000006
42
0.32841736631452456
10
-14.753097094374388
20
-18.574436608701443
42
0.07552249847333091
10
-15.243097094374413
20
-18.500000000000014
10
-17.706194188748871
20
-18.499999999999996
10
-18.361194188748883
20
-18.500000000000011
10
-19.361194188748883
20
-17.500000000000007
10
-19.361194188748868
20
-10.999999999999996
10
-18.361194188748872
20
-10.000000000000018
10
-17.706194188748874
20
-10
10
-15.100695171295948
20
-10.000000000000002
42
-0.11931917832102834
10
-14.753097094374478
20
-10.084148258180798
42
-0.23516348069909249
10
-14.351896132835321
20
-10.630000000000006
42
0.91754379893194093
10
-12.843097094374405
20
-10.499999958326676
10
-12.843097094374416
20
-7.3123410268267897
42
-0.33945425886337743
10
-12.279799568652322
20
-6.5782373988470884
10
-10.999799568652332
20
-6.2352624325352899
42
-0.49314542603130518
10
-10.043097094374405
20
-6.9693660605149788
10
-10.04309709437441
20
-9.3424594886975498
42
0.76732698797895704
10
-8.6249177874982319
20
-9.7224594886975559
10
-8.2267895643525932
20
-9.0328811782822029
10
0.046902905625586966
20
-6.8159519625274712
10
3.0000000000000004
20
-6.0246719809191873
10
3.0000000000000004
20
-6.0000000000000142
10
3.0920770863138047
20
-6.000000000000032
10
3.9529371405912022
20
-5.7693332436601814
42
0.87697646299275855
10
3.7199999999989366
20
-4.0000000000000018
10
-0.75000000000106082
20
-4.000000000000008
42
-0.41421356237308943
10
-1.7500000000010607
20
-3.0000000000000249
10
-1.750000000001064
20
-1.0000000000034741
42
-0.41421356237309948
10
-0.74999999999761702
20
-1.3183898417423734e-14
10
17.24999999999762
20
1.3877787807814457e-15
42
-0.41421356237309809
10
18.249999999998938
20
-1.000000000001311
10
18.249999999998941
20
-2.9999999999999893
42
-0.41421356237309492
10
17.249999999998941
20
-3.9999999999999902
10
12.779999999998939
20
-3.9999999999999858
42
0.87697646299275933
10
12.547062859406674
20
-5.7693332436601636
10
13.407922913684081
20
-6.0000000000000098
10
13.500000000000005
20
-6.0000000000000142
10
13.500000000000005
20
-6.0246719809197735
10
16.453097094374527
20
-6.815951962528076
10
24.726789564352725
20
-9.03288117828221
10
25.12491778749834
20
-9.7224594886975844
42
0.76732698797895804
10
26.54309709437452
20
-9.3424594886975765
10
26.543097094374524
20
-6.9693660605149965
42
-0.49314542603131251
10
27.49979956865246
20
-6.2352624325353094
10
28.779799568652432
20
-6.578237398847131
42
-0.3394542588633811
10
29.343097094374528
20
-7.3123410268268252
10
29.343097094374514
20
-10.500000000000043
42
0.91754377368274542
10
30.851896132837787
20
-10.63000000000045
42
-0.23516348069937881
10
31.253097094377502
20
-10.084148258180415
42
-0.1193191783200854
10
31.600695171296316
20
-10.000000000000046
10
34.206194188748476
20
-10.000000000000028
10
34.861194188748343
20
-10.000000000000032
10
35.86119418874847
20
-11.00000000000016
10
35.86119418874847
20
-17.499999999999929
10
34.861194188748343
20
-18.50000000000006
10
34.206194188748476
20
-18.50000000000005
10
31.743097094374374
20
-18.500000000000071
42
0.075522498472834529
10
31.253097094377612
20
-18.574436608701486
42
0.32841736631453361
10
30.093097094374453
20
-20.150000000000041
10
30.093097094374421
20
-26.500000000000039
42
0.066435721931205519
10
30.268097094374461
20
-27.811249404194513
42
-0.066435721931203104
10
30.44309709437448
20
-29.122498808388944
10
30.443097094374416
20
-29.165231859206521
10
30.443097094374416
20
-38.449999999999996
42
-0.41421356237309503
10
29.593097094374414
20
-39.299999999999997
42
0.41421356237309437
10
27.593097094374414
20
-41.299999999999997
10
27.593097094374414
20
-49.399999999999991
42
0.4142135623731269
10
29.593097094374311
20
-51.399999999999658
42
-0.41421356237312412
10
30.443097094374416
20
-52.249999999999659
10
30.443097094374416
20
-71.341673886799612
10
30.443097094374345
20
-99.30000000000004
42
0.28020660985995627
10
31.253097094377189
20
-100.63187837282541
42
0.12007088038530721
10
31.943097094374195
20
-100.80000000000004
10
34.206194188748277
20
-100.80000000000005
10
34.8611941887482
20
-100.80000000000004
10
35.861194188748215
20
-101.80000000000005
10
35.861194188748193
20
-106.66794919243111
42
-0.26794919243112619
10
34.861194188748172
20
-108.40000000000001
10
34.206194188748242
20
-108.77816442631919
10
33.302348461936475
20
-109.30000000000014
10
31.253097094374311
20
-109.30000000000001
10
26.843097094374322
20
-109.30000000000005
10
25.893097094374326
20
-110.25000000000003
10
16.453097094374325
20
-110.25000000000003
0
LINE
5
107
100
AcDbEntity
8
0
100
AcDbLine
10
3.0000000000000027
20
-88.949999999999989
30
0
11
3.4000000000000075
21
-88.949999999999989
31
0
0
ARC
5
108
100
AcDbEntity
8
0
100
AcDbCircle
10
3.3999999999999986
20
-88.349999999999994
30
0
40
0.60000000000000497
210
-0
220
0
230
1
100
AcDbArc
50
-89.99999999999919
51
0
0
LINE
5
109
100
AcDbEntity
8
0
100
AcDbLine
10
4.0000000000000213
20
-88.349999999999994
30
0
11
4.0000000000000053
21
-86.214589803375077
31
0
0
ARC
5
110
100
AcDbEntity
8
0
100
AcDbCircle
10
4.10000000000006
20
-86.550000000000466
30
0
40
0.35000000000046327
210
0
220
0
230
1
100
AcDbArc
50
90.000000000009877
51
106.60154959900913
0
CIRCLE
5
111
100
AcDbEntity
8
0
100
AcDbCircle
10
-7.593097094374075
20
-37.300000000000004
30
0
40
1.5874999999999995
210
0
220
0
230
1
0
CIRCLE
5
112
100
AcDbEntity
8
0
100
AcDbCircle
10
24.09309709437408
20
-37.299999999999997
30
0
40
1.5874999999999995
210
0
220
0
230
1
0
CIRCLE
5
113
100
AcDbEntity
8
0
100
AcDbCircle
10
-7.593097094374075
20
-55.399999999999991
30
0
40
1.5874999999999995
210
0
220
0
230
1
0
CIRCLE
5
114
100
AcDbEntity
8
0
100
AcDbCircle
10
24.09309709437408
20
-55.399999999999991
30
0
40
1.5874999999999995
210
0
220
0
230
1
0
LINE
5
115
100
AcDbEntity
8
0
100
AcDbLine
10
-0.29309709437439491
20
-25.50772538252172
30
0
11
-0.29309709437439491
21
-61.329954457741835
31
0
0
ARC
5
116
100
AcDbEntity
8
0
100
AcDbCircle
10
5.7069029056255971
20
-61.329954457741835
30
0
40
5.999999999999992
210
0
220
0
230
1
100
AcDbArc
50
180
51
244.8297160223679
0
LINE
5
117
100
AcDbEntity
8
0
100
AcDbLine
10
16.197758978287041
20
-55.030000000000001
30
0
11
15.832795017179377
21
-64.530280449185099
31
0
0
ARC
5
118
100
AcDbEntity
8
0
100
AcDbCircle
10
22.543078497494502
20
-55.27376258770574
30
0
40
6.3500000000000156
210
0
220
0
230
1
100
AcDbArc
50
160.00000000000017
51
177.80000000000013
0
LINE
5
119
100
AcDbEntity
8
0
100
AcDbLine
10
19.31014523636534
20
-45.590015780226253
30
0
11
16.576030355503963
21
-53.101934677587757
31
0
0
ARC
5
120
100
AcDbEntity
8
0
100
AcDbCircle
10
13.343097094381173
20
-43.418187870110565
30
0
40
6.3499999999932459
210
0
220
0
230
1
100
AcDbArc
50
-20.000000000000028
51
0
0
LINE
5
121
100
AcDbEntity
8
0
100
AcDbLine
10
19.693097094374419
20
-26.799999999999997
30
0
11
19.693097094374423
21
-43.418187870110565
31
0
0
ARC
5
122
100
AcDbEntity
8
0
100
AcDbCircle
10
18.443097094374451
20
-26.79999999999999
30
0
40
1.2499999999999689
210
0
220
0
230
1
100
AcDbArc
50
0
51
26.067827376120221
0
ARC
5
123
100
AcDbEntity
8
0
100
AcDbCircle
10
12.83500626794752
20
-64.415117021922541
30
0
40
2.9999999999999933
210
0
220
0
230
1
100
AcDbArc
50
299.67739176336852
51
357.80000000000007
0
ARC
5
124
100
AcDbEntity
8
0
100
AcDbCircle
10
12.83500626794752
20
-64.415117021922541
30
0
40
2.9999999999999947
210
0
220
0
230
1
100
AcDbArc
50
266.65306412701159
51
299.67739176336852
0
ARC
5
125
100
AcDbEntity
8
0
100
AcDbCircle
10
5.7069029056255971
20
-61.329954457741835
30
0
40
5.9999999999999947
210
0
220
0
230
1
100
AcDbArc
50
244.8297160223679
51
255.00000000000009
0
ARC
5
126
100
AcDbEntity
8
0
100
AcDbCircle
10
16.343097094374443
20
-86.300000000000011
30
0
40
1.9999999999999907
210
0
220
0
230
1
100
AcDbArc
50
-86.847141195955814
51
1.4803673712951277
0
ARC
5
127
100
AcDbEntity
8
0
100
AcDbCircle
10
16.593097094374368
20
-86.200000000000031
30
0
40
1.7500000000000688
210
-0
220
0
230
1
100
AcDbArc
50
-1.5825855775841207
51
94.588565735785465
0
LINE
5
128
100
AcDbEntity
8
0
100
AcDbLine
10
15.243097094374367
20
-84.455608988787162
30
0
11
16.453097094374375
21
-84.455608988787176
31
0
0
ARC
5
129
100
AcDbEntity
8
0
100
AcDbCircle
10
15.24309709437437
20
-83.955608988787148
30
0
40
0.50000000000000044
210
0
220
0
230
1
100
AcDbArc
50
180
51
269.9999999999996
0
LINE
5
130
100
AcDbEntity
8
0
100
AcDbLine
10
14.743097094374367
20
-83.164962311319869
30
0
11
14.743097094374368
21
-83.955608988787148
31
0
0
ARC
5
131
100
AcDbEntity
8
0
100
AcDbCircle
10
15.243097094374374
20
-83.164962311319869
30
0
40
0.49999999999999811
210
0
220
0
230
1
100
AcDbArc
50
95.739170477266967
51
180
0
ARC
5
132
100
AcDbEntity
8
0
100
AcDbCircle
10
14.943097094374371
20
-80.180000000000021
30
0
40
2.4999999999999902
210
-0
220
0
230
1
100
AcDbArc
50
-84.260829522733161
51
174.26082952273256
0
ARC
5
133
100
AcDbEntity
8
0
100
AcDbCircle
10
11.958134783054511
20
-79.880000000000024
30
0
40
0.49999999999999822
210
0
220
0
230
1
100
AcDbArc
50
270
51
354.26082952273674
0
LINE
5
134
100
AcDbEntity
8
0
100
AcDbLine
10
11.043097094374366
20
-80.380000000000024
30
0
11
11.958134783054511
21
-80.380000000000024
31
0
0
ARC
5
135
100
AcDbEntity
8
0
100
AcDbCircle
10
11.043097094374366
20
-79.880000000000024
30
0
40
0.49999999999999156
210
0
220
0
230
1
100
AcDbArc
50
180
51
270
0
LINE
5
136
100
AcDbEntity
8
0
100
AcDbLine
10
10.543097094374396
20
-69.406588652051653
30
0
11
10.543097094374374
21
-79.88000000000001
31
0
0
ARC
5
137
100
AcDbEntity
8
0
100
AcDbCircle
10
12.543097094374405
20
-69.406588652051667
30
0
40
2.0000000000000075
210
0
220
-0
230
1
100
AcDbArc
50
86.653064127011817
51
180
0
LWPOLYLINE
5
138
100
AcDbEntity
8
0
100
AcDbPolyline
90
8
70
1
43
0.0
10
24.053097094374493
20
-14.500000000000037
10
24.053097094374493
20
-13.148760720561041
42
0.21027738529708753
10
23.72868730199016
20
-12.411483383750921
10
22.518687301990219
20
-11.302722663189876
42
0.65251373304727955
10
20.843097094374507
20
-12.040000000000024
10
20.843097094374492
20
-13.870113868835325
42
0.27967542089874053
10
21.381348481139458
20
-14.757124702013558
10
22.591348481136869
20
-15.387010833179826
42
0.56289631521981409
0
LWPOLYLINE
5
139
100
AcDbEntity
8
0
100
AcDbPolyline
90
4
70
1
43
0.0
10
13.532879023206888
20
-25.89929284105505
10
12.047476920094528
20
-26.108052492495144
42
-0.99999999999999989
10
11.838717268654435
20
-24.622650389382787
10
13.324119382833901
20
-24.413890736387312
42
-0.9999999925494194
0
ARC
5
140
100
AcDbEntity
8
0
100
AcDbCircle
10
18.443097094374451
20
-26.79999999999999
30
0
40
1.2499999999999694
210
-0
220
0
230
1
100
AcDbArc
50
26.067827376120221
51
180
0
LINE
5
141
100
AcDbEntity
8
0
100
AcDbLine
10
17.193097094374483
20
-26.800000000000004
30
0
11
17.193097094374483
21
-28.23295006066634
31
0
0
ARC
5
142
100
AcDbEntity
8
0
100
AcDbCircle
10
16.69309709437448
20
-28.232950060666347
30
0
40
0.49999999999999772
210
0
220
0
230
1
100
AcDbArc
50
-105.0000000000005
51
0
0
LINE
5
143
100
AcDbEntity
8
0
100
AcDbLine
10
11.79604948161867
20
-27.438428197736705
30
0
11
16.563687571823216
21
-28.715912973810877
31
0
0
ARC
5
144
100
AcDbEntity
8
0
100
AcDbCircle
10
12.443097094375158
20
-25.023613632013362
30
0
40
2.5000000000006772
210
0
220
0
230
1
100
AcDbArc
50
180
51
254.99999999999986
0
LINE
5
145
100
AcDbEntity
8
0
100
AcDbLine
10
9.9430970943744832
20
-24.435057536046774
30
0
11
9.9430970943744796
21
-25.023613632013362
31
0
0
ARC
5
146
100
AcDbEntity
8
0
100
AcDbCircle
10
10.443097094374778
20
-24.435057536046774
30
0
40
0.50000000000030076
210
0
220
0
230
1
100
AcDbArc
50
98.000000000000028
51
180
0
LINE
5
147
100
AcDbEntity
8
0
100
AcDbLine
10
15.577189059118371
20
-23.208594179623269
30
0
11
10.373510543894703
21
-23.93992350167569
31
0
0
ARC
5
148
100
AcDbEntity
8
0
100
AcDbCircle
10
15.5076025086383
20
-22.713460145252192
30
0
40
0.50000000000029576
210
0
220
0
230
1
100
AcDbArc
50
-82.000000000000242
51
8.0786510536829503
0
ARC
5
149
100
AcDbEntity
8
0
100
AcDbCircle
10
21.943097094374487
20
-21.800000000000015
30
0
40
5.9999999999999982
210
0
220
0
230
1
100
AcDbArc
50
156.20572704946306
51
188.07865105368154
0
LINE
5
150
100
AcDbEntity
8
0
100
AcDbLine
10
16.453097094374503
20
-19.379276967515683
30
0
11
16.453097094374503
21
-19.353474767284382
31
0
0
ARC
5
151
100
AcDbEntity
8
0
100
AcDbCircle
10
14.543097094374495
20
-18.760263169285878
30
0
40
1.9999999999999918
210
-0
220
0
230
1
100
AcDbArc
50
-17.253853117355792
51
0
0
LINE
5
152
100
AcDbEntity
8
0
100
AcDbLine
10
16.543097094374495
20
-18.760263169285878
30
0
11
16.543097094374502
21
-15.300000000000011
31
0
0
ARC
5
153
100
AcDbEntity
8
0
100
AcDbCircle
10
12.543097094373802
20
-15.299999999999265
30
0
40
4.0000000000006981
210
-0
220
0
230
1
100
AcDbArc
50
0
51
12.177175673923475
0
SPLINE
5
154
100
AcDbEntity
8
0
100
AcDbSpline
70
0
71
3
72
8
73
4
74
0
42
0.000000001
43
0.0000000001
44
0.0000000001
40
0.44979955033723762
40
0.44979955033723762
40
0.44979955033723762
40
0.44979955033723762
40
0.4606675079660032
40
0.4606675079660032
40
0.4606675079660032
40
0.4606675079660032
10
16.245877760397637
20
-88.299999999999997
30
0
10
16.315871414757083
20
-88.299999999999997
30
0
10
16.38509431471201
20
-88.298965167775719
30
0
10
16.453097094374456
20
-88.296972708877121
30
0
0
LINE
5
155
100
AcDbEntity
8
0
100
AcDbLine
10
13.500000000000005
20
-88.299999999999983
30
0
11
16.245877760397637
21
-88.299999999999997
31
0
0
ARC
5
156
100
AcDbEntity
8
0
100
AcDbCircle
10
12.543097094373802
20
-15.299999999999265
30
0
40
3.9999999999992513
210
0
220
-0
230
1
100
AcDbArc
50
12.177175673923475
51
76.159153374205417
0
LINE
5
157
100
AcDbEntity
8
0
100
AcDbLine
10
0.046902905625596514
20
-88.949999999999989
30
0
11
3.0000000000000027
21
-88.949999999999989
31
0
0
ARC
5
158
100
AcDbEntity
8
0
100
AcDbCircle
10
-0.70559709437439277
20
-85.387499999999989
30
0
40
1.1875000000000036
210
0
220
-0
230
1
100
AcDbArc
50
90
51
180
0
LINE
5
159
100
AcDbEntity
8
0
100
AcDbLine
10
-1.8930970943743963
20
-85.38749999999996
30
0
11
-1.8930970943743897
21
-87.762499999999974
31
0
0
ARC
5
160
100
AcDbEntity
8
0
100
AcDbCircle
10
-0.70559709437439277
20
-87.762499999999974
30
0
40
1.1874999999999969
210
0
220
0
230
1
100
AcDbArc
50
180
51
270
0
LINE
5
161
100
AcDbEntity
8
0
100
AcDbLine
10
-0.70559709437439289
20
-88.949999999999974
30
0
11
0.046902905625596514
21
-88.949999999999989
31
0
0
ARC
5
162
100
AcDbEntity
8
0
100
AcDbCircle
10
4.9569029056256024
20
-68.375925826289091
30
0
40
0.99999999999999978
210
0
220
0
230
1
100
AcDbArc
50
0
51
75.000000000000369
0
LINE
5
163
100
AcDbEntity
8
0
100
AcDbLine
10
5.9569029056256007
20
-79.900010345827368
30
0
11
5.9569029056256015
21
-68.375925826289091
31
0
0
ARC
5
164
100
AcDbEntity
8
0
100
AcDbCircle
10
1.4569029056255833
20
-79.900010345827368
30
0
40
4.5000000000000089
210
-0
220
0
230
1
100
AcDbArc
50
-72.853343187863317
51
0
0
LINE
5
165
100
AcDbEntity
8
0
100
AcDbLine
10
2.7835863546851467
20
-84.199999999999989
30
0
11
-0.70559709437439277
21
-84.199999999999989
31
0
0
LINE
5
166
100
AcDbEntity
8
0
100
AcDbLine
10
12.543097094373703
20
-11.300000000000026
30
0
11
6.2500000000000036
21
-11.300000000000026
31
0
0
ARC
5
167
100
AcDbEntity
8
0
100
AcDbCircle
10
6.2500000000000018
20
-14.299999999999997
30
0
40
2.9999999999999716
210
0
220
-0
230
1
100
AcDbArc
50
89.999999999999972
51
140.00000000000026
0
LINE
5
168
100
AcDbEntity
8
0
100
AcDbLine
10
3.9518666706430592
20
-12.371637170940391
30
0
11
3.0000000000000027
21
-13.506027695349944
31
0
0
ARC
5
169
100
AcDbEntity
8
0
100
AcDbCircle
10
12.543097094373802
20
-15.299999999999265
30
0
40
3.9999999999991829
210
0
220
-0
230
1
100
AcDbArc
50
76.159153374205417
51
90.000000000001435
0
LINE
5
170
100
AcDbEntity
8
0
100
AcDbLine
10
5.2157219507281196
20
-67.410000000000011
30
0
11
4.1539886350104798
21
-67.125509415476245
31
0
0
ARC
5
171
100
AcDbEntity
8
0
100
AcDbCircle
10
1.706902905625602
20
-18.158528456864609
30
0
40
1.9999999999999996
210
0
220
0
230
1
100
AcDbArc
50
140
51
146.09873800313369
0
LINE
5
172
100
AcDbEntity
8
0
100
AcDbLine
10
3.0000000000000027
20
-13.506027695349944
30
0
11
0.17481401938764629
21
-16.872953237491529
31
0
0
ARC
5
173
100
AcDbEntity
8
0
100
AcDbCircle
10
1.706902905625602
20
-18.158528456864609
30
0
40
1.9999999999999996
210
0
220
0
230
1
100
AcDbArc
50
146.09873800313369
51
180
0
LINE
5
174
100
AcDbEntity
8
0
100
AcDbLine
10
-0.29309709437439768
20
-18.158528456864591
30
0
11
-0.29309709437439491
21
-25.50772538252172
31
0
0
ENDSEC
0
SECTION
2
OBJECTS
0
DICTIONARY
5
C
100
AcDbDictionary
3
ACAD_GROUP
350
D
3
ACAD_MLINESTYLE
350
17
0
DICTIONARY
5
D
100
AcDbDictionary
0
DICTIONARY
5
1A
330
C
100
AcDbDictionary
0
DICTIONARY
5
17
100
AcDbDictionary
0
ENDSEC
0
EOF
